:SAMPLES-PER-SECOND 30
:FULLY-SPECIFIED
:DEGREES
346
root  -2.78518 40.9133 0.504608 -176.896 -86.5529 175.01
RightUpLeg  5.25001 -1.66305 -1.52342
RightLeg  -0.501117 -16.1759 0.00246157
RightFoot  -1.62138 -0.272909 3.07881
RightToes  -3.13006e-008 1.75238e-005 3.56266e-009
Spine  -6.02881 1.7516 6.18338
Spine1  7.98162 3.04897 -7.12968
HEad  -9.35089 1.52302 -4.65704
LeftShoulder1  2.95753 -7.57879 -20.2565
LeftArm  -53.2881 -43.0175 -42.703
LeftForeArm  36.3306 -73.4248 -37.021
LeftHand  -0.213589 -3.41016 3.06816
RightShoulder  2.38857 7.35649 15.2287
RightArm  -29.8612 56.6429 31.6274
RightForeArm  34.0055 65.2584 21.3678
RightHand  -0.601003 8.07815 -5.54363
LeftUpLeg  5.55369 1.76532 2.35202
LeftLeg  -1.30491 14.9187 -0.940268
LeftFoot  -1.14706 0.281349 -3.09404
LeftToes  4.76866e-008 1.46233e-008 1.30548e-009
347
root  -2.82704 40.9051 0.428632 -175.336 -87.0696 173.293
RightUpLeg  5.4558 -1.71954 -1.45985
RightLeg  -0.278983 -16.5952 -0.0353877
RightFoot  -1.89668 -0.27246 3.13936
RightToes  -3.13006e-008 1.75238e-005 3.56266e-009
Spine  -6.46148 1.76427 6.39588
Spine1  8.8308 3.16452 -7.44587
HEad  -10.0579 1.53904 -5.96262
LeftShoulder1  2.90576 -7.30456 -20.4752
LeftArm  -56.3761 -38.5545 -42.56
LeftForeArm  43.8416 -75.8126 -45.2945
LeftHand  -0.179057 -3.35161 2.62447
RightShoulder  2.44943 7.36199 15.825
RightArm  -33.3441 55.168 28.1878
RightForeArm  34.7905 66.0438 22.2194
RightHand  -0.640723 7.83833 -5.97935
LeftUpLeg  5.70189 1.77182 2.41094
LeftLeg  -1.25606 14.4317 -0.852482
LeftFoot  -1.17843 0.287207 -3.16801
LeftToes  4.76866e-008 1.46233e-008 1.30548e-009
348
root  -2.86811 40.8952 0.363211 -172.05 -87.6534 169.717
RightUpLeg  5.86254 -1.9082 -1.50193
RightLeg  -0.148809 -16.9568 0.0195574
RightFoot  -2.11259 -0.254608 2.97474
RightToes  -3.13006e-008 1.75238e-005 3.56266e-009
Spine  -6.52349 1.67414 6.47276
Spine1  9.44247 3.13313 -7.52313
HEad  -10.9055 1.8177 -7.72219
LeftShoulder1  2.90639 -6.96106 -21.4166
LeftArm  -58.2738 -33.4089 -42.1756
LeftForeArm  51.8027 -77.663 -56.2898
LeftHand  -0.171584 -3.10315 2.58095
RightShoulder  2.37872 7.11032 15.6802
RightArm  -35.3686 52.9756 26.7817
RightForeArm  35.5865 67.4035 23.9246
RightHand  -0.668156 8.62062 -5.90152
LeftUpLeg  5.94277 1.7944 2.4493
LeftLeg  -1.11168 13.8059 -0.770971
LeftFoot  -1.25953 0.294547 -3.26015
LeftToes  4.76866e-008 1.46233e-008 1.30548e-009
349
root  -2.89424 40.8881 0.291592 -164.064 -88.1864 161.639
RightUpLeg  5.99299 -2.12285 -1.62318
RightLeg  0.0537623 -17.2956 0.0710416
RightFoot  -2.36693 -0.244451 2.90818
RightToes  -3.13006e-008 1.75238e-005 3.56266e-009
Spine  -6.66963 1.62253 6.65375
Spine1  9.84602 3.2515 -8.08757
HEad  -11.5087 2.24481 -8.55904
LeftShoulder1  2.92239 -6.8915 -21.7786
LeftArm  -58.9907 -27.7273 -42.2468
LeftForeArm  59.3275 -78.6855 -67.4877
LeftHand  -0.179539 -2.92994 2.73548
RightShoulder  2.50953 7.17192 16.8842
RightArm  -36.4312 50.596 24.9481
RightForeArm  36.6671 68.6679 25.7014
RightHand  -0.711168 8.37963 -6.3552
LeftUpLeg  6.00081 1.76151 2.4157
LeftLeg  -1.09989 13.2695 -0.757723
LeftFoot  -1.26774 0.299639 -3.30997
LeftToes  4.76866e-008 1.46233e-008 1.30548e-009
350
root  -2.91402 40.8798 0.208516 -151.369 -88.7697 148.789
RightUpLeg  6.26961 -2.28399 -1.64432
RightLeg  0.114272 -17.8163 0.171175
RightFoot  -2.58025 -0.236683 2.85607
RightToes  -3.13006e-008 1.75238e-005 3.56266e-009
Spine  -7.09123 1.60252 6.405
Spine1  10.8691 3.2811 -7.94532
HEad  -12.2493 1.89293 -9.50168
LeftShoulder1  3.01872 -6.94338 -22.6118
LeftArm  -59.0232 -23.2513 -41.9344
LeftForeArm  66.1335 -79.1376 -76.8382
LeftHand  -0.167339 -2.48249 2.67451
RightShoulder  2.45784 6.88488 17.0418
RightArm  -36.9374 48.5267 24.2875
RightForeArm  37.5814 69.7638 27.4795
RightHand  -0.710372 8.3436 -6.36385
LeftUpLeg  6.05711 1.76024 2.47577
LeftLeg  -0.970728 12.5762 -0.672715
LeftFoot  -1.30892 0.314576 -3.49552
LeftToes  4.76866e-008 1.46233e-008 1.30548e-009
351
root  -2.93173 40.8766 0.139076 -127.364 -89.0435 124.663
RightUpLeg  6.42084 -2.42281 -1.72777
RightLeg  0.283156 -18.095 0.183007
RightFoot  -2.77888 -0.239558 2.93613
RightToes  -3.13006e-008 1.75238e-005 3.56266e-009
Spine  -7.60119 1.69883 6.50878
Spine1  11.8271 3.55062 -8.37082
HEad  -12.5409 0.926015 -9.96152
LeftShoulder1  3.01819 -6.86765 -22.8289
LeftArm  -58.2747 -20.2033 -42.6849
LeftForeArm  71.8315 -79.3167 -83.1464
LeftHand  -0.149227 -2.67761 2.36267
RightShoulder  2.61909 7.18537 17.9694
RightArm  -37.4494 46.4527 22.7256
RightForeArm  37.9234 70.6017 29.0828
RightHand  -0.707872 8.36506 -6.33378
LeftUpLeg  6.20343 1.71136 2.44598
LeftLeg  -1.07393 12.1306 -0.6557
LeftFoot  -1.24566 0.332918 -3.68429
LeftToes  4.76866e-008 1.46233e-008 1.30548e-009
352
root  -2.94098 40.8754 0.0679402 -84.1956 -89.1548 81.4586
RightUpLeg  6.56555 -2.43902 -1.62765
RightLeg  0.235172 -18.801 0.226359
RightFoot  -2.83437 -0.238862 2.94274
RightToes  -3.13006e-008 1.75238e-005 3.56266e-009
Spine  -7.81674 1.6949 6.53225
Spine1  12.1539 3.63523 -8.61292
HEad  -12.6688 0.875168 -10.572
LeftShoulder1  3.08779 -6.97764 -23.206
LeftArm  -57.1173 -17.9312 -43.051
LeftForeArm  74.4624 -79.3542 -86.0353
LeftHand  -0.151133 -2.72309 2.36841
RightShoulder  2.5577 6.88206 18.1023
RightArm  -37.1677 45.0334 23.0917
RightForeArm  39.0358 71.1001 29.9561
RightHand  -0.698816 8.49354 -6.20529
LeftUpLeg  6.15194 1.63744 2.48906
LeftLeg  -1.0694 11.4965 -0.530132
LeftFoot  -1.18023 0.351359 -3.87257
LeftToes  4.76866e-008 1.46233e-008 1.30548e-009
353
root  -2.94408 40.8759 -7.51148e-005 -43.2553 -88.7032 40.4835
RightUpLeg  6.79994 -2.50705 -1.5816
RightLeg  0.00270325 -19.6493 0.360619
RightFoot  -2.86404 -0.223708 2.72169
RightToes  -3.13006e-008 1.75238e-005 3.56266e-009
Spine  -8.00415 1.53284 6.20445
Spine1  12.3998 3.48417 -8.52102
HEad  -12.4727 0.997427 -11.1384
LeftShoulder1  3.1963 -7.17683 -23.702
LeftArm  -56.0972 -16.3786 -43.0377
LeftForeArm  75.7113 -79.3615 -87.4468
LeftHand  -0.0768766 -2.40178 1.35137
RightShoulder  2.68029 7.14624 18.6844
RightArm  -36.8294 43.809 22.7088
RightForeArm  39.3944 71.4693 30.7352
RightHand  -0.624136 8.51098 -5.5788
LeftUpLeg  6.04977 1.6303 2.54579
LeftLeg  -1.00819 10.6796 -0.487985
LeftFoot  -1.15155 0.365915 -4.02612
LeftToes  4.76866e-008 1.46233e-008 1.30548e-009
354
root  -2.93028 40.876 -0.060563 -36.0427 -88.2224 33.2871
RightUpLeg  6.74177 -2.5193 -1.57585
RightLeg  0.200983 -20.0634 0.269897
RightFoot  -2.97056 -0.226695 2.779
RightToes  -3.13006e-008 1.75238e-005 3.56266e-009
Spine  -7.9563 1.41883 5.68729
Spine1  12.3633 3.31927 -8.12278
HEad  -12.4014 0.949126 -11.4179
LeftShoulder1  3.20522 -7.10989 -23.9863
LeftArm  -54.8458 -15.5324 -43.391
LeftForeArm  76.7798 -79.3685 -88.5167
LeftHand  -0.070637 -2.65862 1.22968
RightShoulder  2.79749 7.48612 18.9971
RightArm  -36.2919 42.9533 22.6574
RightForeArm  39.6664 71.6052 31.0052
RightHand  -0.635615 8.26803 -5.76431
LeftUpLeg  6.01136 1.58983 2.5403
LeftLeg  -1.16564 10.2444 -0.523869
LeftFoot  -1.00516 0.378813 -4.12094
LeftToes  4.76866e-008 1.46233e-008 1.30548e-009
355
root  -2.92772 40.8715 -0.10651 -31.1453 -87.7658 28.3388
RightUpLeg  6.78807 -2.6063 -1.59855
RightLeg  0.289408 -20.5342 0.280281
RightFoot  -3.06634 -0.222102 2.71575
RightToes  -3.13006e-008 1.75238e-005 3.56266e-009
Spine  -7.91721 1.38387 5.29223
Spine1  12.4446 3.23438 -7.76596
HEad  -12.5746 0.800932 -11.6638
LeftShoulder1  3.30067 -7.33096 -24.2664
LeftArm  -53.9492 -15.2268 -43.4246
LeftForeArm  76.8603 -79.366 -88.6618
LeftHand  -0.0992997 -2.84864 1.61997
RightShoulder  2.71198 7.24444 18.7574
RightArm  -35.6621 42.5797 23.5453
RightForeArm  40.0781 71.7216 31.2039
RightHand  -0.602046 8.18058 -5.50545
LeftUpLeg  6.03911 1.52091 2.49288
LeftLeg  -1.26335 9.81756 -0.480322
LeftFoot  -0.86994 0.37098 -3.95648
LeftToes  4.76866e-008 1.46233e-008 1.30548e-009
